# xmcd
#
# Track frame offsets: 
#        150
#        24990
#        38858
#        64690
#        77957
#        103143
#        114334
#        141305
#        155556
#        181389
#        193605
#        215250
#        232201
#        242201
#        256343
#        277248
#        292804
#
# Disc length: 4085 seconds
#
# Revision: 1
# Processed by: cddbd v1.5.2PL0 Copyright (c) Steve Scherf et al.
# Submitted via: ExactAudioCopy v1.1
#
DISCID=fd0ff311
DTITLE=Milt Jackson - Statements - Jazz 'n' Samba
DYEAR=2011
DGENRE=Jazz
TTITLE0=Statement (stereo)
TTITLE1=Slowly (stereo)
TTITLE2=A Thrill From The Blues (stereo)
TTITLE3=Paris Blues (stereo)
TTITLE4=Put Off (stereo)
TTITLE5=A Beautiful Romance (stereo)
TTITLE6=Sonnymoon For Two (stereo)
TTITLE7=The Bad And The Beautiful (stereo)
TTITLE8=Blues For Juanita (stereo)
TTITLE9=I Got It Bad And That Ain't Good (stereo)
TTITLE10=Big George (stereo)
TTITLE11=Gingerbread Boy (stereo)
TTITLE12=Jazz 'N' Samba (stereo)
TTITLE13=The Oo-Oo Bossa Noova (stereo)
TTITLE14=I Love You (stereo)
TTITLE15=Kiss And Run (stereo)
TTITLE16=Jazz Bossa Nova (stereo)
EXTD=YEAR: 2011
EXTT0=
EXTT1=
EXTT2=
EXTT3=
EXTT4=
EXTT5=
EXTT6=
EXTT7=
EXTT8=
EXTT9=
EXTT10=
EXTT11=
EXTT12=
EXTT13=
EXTT14=
EXTT15=
EXTT16=
PLAYORDER=
